<?xml version="1.0" encoding="UTF-8" standalone="no"?>
<svg
   xmlns:dc="http://purl.org/dc/elements/1.1/"
   xmlns:cc="http://creativecommons.org/ns#"
   xmlns:rdf="http://www.w3.org/1999/02/22-rdf-syntax-ns#"
   xmlns:svg="http://www.w3.org/2000/svg"
   xmlns="http://www.w3.org/2000/svg"
   xmlns:sodipodi="http://sodipodi.sourceforge.net/DTD/sodipodi-0.dtd"
   xmlns:inkscape="http://www.inkscape.org/namespaces/inkscape"
   version="1.1"
   id="Camada_1"
   x="0px"
   y="0px"
   viewBox="0 0 311.78999 60.81"
   xml:space="preserve"
   sodipodi:docname="logo.svg"
   width="311.79001"
   height="60.810001"
   inkscape:version="1.0 (b51213c273, 2020-08-10)"><metadata
   id="metadata963"><rdf:RDF><cc:Work
       rdf:about=""><dc:format>image/svg+xml</dc:format><dc:type
         rdf:resource="http://purl.org/dc/dcmitype/StillImage" /><dc:title></dc:title></cc:Work></rdf:RDF></metadata><defs
   id="defs961" /><sodipodi:namedview
   pagecolor="#ffffff"
   bordercolor="#666666"
   borderopacity="1"
   objecttolerance="10"
   gridtolerance="10"
   guidetolerance="10"
   inkscape:pageopacity="0"
   inkscape:pageshadow="2"
   inkscape:window-width="1294"
   inkscape:window-height="704"
   id="namedview959"
   showgrid="false"
   inkscape:zoom="1.2376914"
   inkscape:cx="146.89632"
   inkscape:cy="71.575378"
   inkscape:window-x="1992"
   inkscape:window-y="339"
   inkscape:window-maximized="1"
   inkscape:current-layer="Camada_1" />
<path
   d="M 20.91,29.74 26.53,36.69 38.67,2.28 C 39.14,0.96 41.4,0 44.04,0 c 0.01,0 0.02,0 0.04,0 2.66,0.01 4.92,0.99 5.35,2.32 L 62.85,43.41 68.57,30.2 c 0.55,-1.27 2.77,-2.17 5.33,-2.17 h 15.52 c 1.01,0 1.82,0.41 1.82,0.92 v 3.69 c 0,0.51 -0.81,0.92 -1.82,0.92 H 78.29 L 67.42,58.64 c -0.55,1.27 -2.77,2.17 -5.33,2.17 -0.05,0 -0.1,0 -0.15,0 C 59.32,60.78 57.12,59.8 56.7,58.5 L 43.82,19.07 33.95,47.04 c -0.43,1.21 -2.38,2.13 -4.79,2.27 -2.43,0.12 -4.71,-0.56 -5.63,-1.7 L 12.18,33.57 H 0 v -5.54 h 15.84 c 2.24,-0.01 4.23,0.67 5.07,1.71 z"
   id="path934"
   style="fill:#ffffff" />
<g
   id="g956"
   transform="translate(-143.46,-137.23)"
   style="fill:#ffffff">
	<path
   d="m 236.9,167.67 -0.52,1.5 c -0.32,0.92 -1.18,1.54 -2.16,1.54 h -3.05 c -1.61,0 -2.71,-1.61 -2.12,-3.11 l 9.42,-24.1 c 0.34,-0.87 1.18,-1.45 2.12,-1.45 h 4.88 c 0.95,0 1.8,0.59 2.13,1.48 l 11.87,31.48 c 0.56,1.49 -0.54,3.08 -2.13,3.08 h -3.42 c -0.96,0 -1.82,-0.6 -2.15,-1.51 l -3.22,-8.95 c -0.33,-0.9 -1.18,-1.51 -2.15,-1.51 h -7.37 c -0.94,0.01 -1.81,0.63 -2.13,1.55 z m 4.52,-13.04 -0.78,2.27 c -0.51,1.48 0.59,3.02 2.16,3.02 v 0 c 1.56,0 2.66,-1.53 2.16,-3.01 l -0.76,-2.27 c -0.45,-1.33 -2.32,-1.33 -2.78,-0.01 z"
   id="path936"
   style="fill:#ffffff" />
	<path
   d="m 275.75,170.71 h -2.93 c -0.47,0 -0.86,-0.38 -0.86,-0.86 v 0 c 0,-0.75 -0.9,-1.13 -1.45,-0.61 -1.28,1.2 -2.9,1.84 -4.81,1.84 -4.27,0 -7.19,-3.31 -7.19,-8.5 v -10.32 c 0,-2.09 1.69,-3.78 3.78,-3.78 v 0 c 2.09,0 3.78,1.69 3.78,3.78 v 7.99 c 0,2.17 1.09,3.56 2.73,3.56 1.95,-0.04 3.15,-1.8 3.15,-4.33 v -7.22 c 0,-2.09 1.69,-3.78 3.78,-3.78 v 0 c 2.09,0 3.78,1.69 3.78,3.78 v 14.68 c 0.02,2.08 -1.67,3.77 -3.76,3.77 z"
   id="path938"
   style="fill:#ffffff" />
	<path
   d="m 301.34,170.71 h -3.06 c -0.4,0 -0.72,-0.32 -0.72,-0.72 v 0 c 0,-0.62 -0.72,-0.94 -1.19,-0.54 -1.2,1 -2.68,1.55 -4.39,1.55 -5.69,0 -9.44,-4.54 -9.44,-11.53 0,-6.83 3.67,-11.28 9.25,-11.28 1.43,0 2.72,0.37 3.82,1.06 0.85,0.53 1.95,-0.14 1.95,-1.14 v -3.94 c 0,-2.09 1.69,-3.78 3.78,-3.78 v 0 c 2.09,0 3.78,1.69 3.78,3.78 v 22.77 c 0,2.08 -1.7,3.77 -3.78,3.77 z m -3.79,-11.04 c 0,-2.94 -1.46,-4.95 -3.67,-4.95 -2.25,0 -3.71,2 -3.71,4.95 0,2.98 1.46,4.99 3.71,4.99 2.21,0 3.67,-2 3.67,-4.99 z"
   id="path940"
   style="fill:#ffffff" />
	<path
   d="m 317.59,142.13 c 0,2.49 -1.61,4.25 -3.89,4.25 -2.29,0 -3.9,-1.76 -3.9,-4.25 0,-2.49 1.61,-4.25 3.9,-4.25 2.28,0 3.89,1.76 3.89,4.25 z m -7.71,24.8 v -14.68 c 0,-2.09 1.69,-3.78 3.78,-3.78 v 0 c 2.09,0 3.78,1.69 3.78,3.78 v 14.68 c 0,2.09 -1.69,3.78 -3.78,3.78 v 0 c -2.09,0 -3.78,-1.69 -3.78,-3.78 z"
   id="path942"
   style="fill:#ffffff" />
	<path
   d="m 343.1,159.59 c 0,6.87 -4.46,11.41 -11.31,11.41 -6.85,0 -11.35,-4.54 -11.35,-11.41 0,-6.91 4.49,-11.41 11.35,-11.41 6.86,0 11.31,4.5 11.31,11.41 z m -15.02,0.08 c 0,2.98 1.46,4.95 3.71,4.95 2.21,0 3.67,-1.96 3.67,-4.95 0,-2.94 -1.46,-4.95 -3.67,-4.95 -2.25,0.01 -3.71,2.01 -3.71,4.95 z"
   id="path944"
   style="fill:#ffffff" />
	<path
   d="m 375.7,149.47 v 0 c -1.17,1.51 -3.33,1.91 -4.88,0.81 -1.24,-0.88 -2.59,-1.4 -3.86,-1.4 -3.56,0 -6.25,3.15 -6.25,7.36 0,4.21 2.7,7.4 6.25,7.4 1.21,0 2.58,-0.47 3.86,-1.28 1.52,-0.96 3.5,-0.75 4.67,0.62 l 0.02,0.02 c 1.31,1.53 1.11,3.89 -0.51,5.09 -2.53,1.87 -5.56,2.99 -8.41,2.99 -7.98,0 -13.86,-6.3 -13.86,-14.76 0,-8.34 5.99,-14.51 14.12,-14.51 2.74,0 5.61,0.94 8,2.54 1.71,1.15 2.11,3.49 0.85,5.12 z"
   id="path946"
   style="fill:#ffffff" />
	<path
   d="m 381.09,166.93 v -22.77 c 0,-2.09 1.69,-3.78 3.78,-3.78 v 0 c 2.09,0 3.78,1.69 3.78,3.78 v 22.77 c 0,2.09 -1.69,3.78 -3.78,3.78 v 0 c -2.09,0 -3.78,-1.69 -3.78,-3.78 z"
   id="path948"
   style="fill:#ffffff" />
	<path
   d="m 412.92,156.28 v 12.8 c 0,0.9 -0.73,1.63 -1.63,1.63 h -4.15 c -0.9,0 -1.63,-0.73 -1.63,-1.63 v -0.82 c -1.24,1.8 -3.26,2.82 -5.95,2.82 -4.35,0 -6.89,-2.82 -6.89,-6.99 0,-4.29 2.73,-6.66 7.86,-6.75 h 4.98 v -0.08 c 0,-1.84 -1.2,-2.94 -3.52,-2.94 -1.25,0 -2.9,0.32 -4.63,0.96 -0.85,0.31 -1.79,-0.16 -2.08,-1.01 l -0.71,-2.09 c -0.38,-1.13 0.05,-2.03 0.87,-2.35 2.83,-1.09 5.63,-1.68 8.34,-1.68 5.73,-0.01 9.14,2.98 9.14,8.13 z m -7.41,6.75 v 0 c 0,-0.9 -0.73,-1.63 -1.63,-1.63 h -1.81 c -1.5,0 -2.28,0.7 -2.28,2.09 0,1.39 0.82,2.21 2.28,2.21 1.41,0 2.66,-0.76 3.29,-1.95 0.1,-0.23 0.15,-0.48 0.15,-0.72 z"
   id="path950"
   style="fill:#ffffff" />
	<path
   d="m 433.33,153.31 -0.03,0.07 c -0.67,1.38 -2.3,2.01 -3.71,1.4 -1.69,-0.74 -3.12,-1.11 -4.23,-1.11 -0.94,0 -1.54,0.37 -1.54,1.06 0,2.49 10.64,1.39 10.64,9 0,4.58 -3.63,7.36 -8.95,7.36 -2.6,0 -5.06,-0.55 -7.22,-1.65 -1.38,-0.7 -1.99,-2.35 -1.35,-3.76 v 0 c 0.66,-1.47 2.4,-2.12 3.85,-1.42 1.69,0.81 3.34,1.23 4.84,1.23 1.01,0 1.69,-0.33 1.69,-1.02 0,-2.53 -10.41,-1.31 -10.41,-8.91 0,-4.66 3.56,-7.44 8.69,-7.44 2.09,0 4.2,0.44 6.21,1.27 1.53,0.62 2.24,2.41 1.52,3.92 z"
   id="path952"
   style="fill:#ffffff" />
	<path
   d="m 454.12,153.31 -0.03,0.07 c -0.67,1.38 -2.3,2.01 -3.71,1.4 -1.69,-0.74 -3.12,-1.11 -4.23,-1.11 -0.94,0 -1.54,0.37 -1.54,1.06 0,2.49 10.64,1.39 10.64,9 0,4.58 -3.63,7.36 -8.95,7.36 -2.6,0 -5.06,-0.55 -7.22,-1.65 -1.38,-0.7 -1.99,-2.35 -1.35,-3.76 v 0 c 0.66,-1.47 2.4,-2.12 3.85,-1.42 1.69,0.81 3.34,1.23 4.84,1.23 1.01,0 1.69,-0.33 1.69,-1.02 0,-2.53 -10.41,-1.31 -10.41,-8.91 0,-4.66 3.56,-7.44 8.69,-7.44 2.09,0 4.2,0.44 6.21,1.27 1.53,0.62 2.24,2.41 1.52,3.92 z"
   id="path954"
   style="fill:#ffffff" />
</g>
</svg>
